<?xml version="1.0" standalone="no"?>
<!DOCTYPE svg PUBLIC "-//W3C//DTD SVG 20010904//EN"
 "http://www.w3.org/TR/2001/REC-SVG-20010904/DTD/svg10.dtd">
<svg version="1.0" xmlns="http://www.w3.org/2000/svg"
 width="175.000000pt" height="175.000000pt" viewBox="0 0 175.000000 175.000000"
 preserveAspectRatio="xMidYMid meet">

<g transform="translate(0.000000,175.000000) scale(0.100000,-0.100000)"
fill="#000000" stroke="none">
<path d="M1393 1626 c-58 -14 -171 -83 -192 -117 -7 -12 -46 -63 -85 -113
-136 -171 -308 -411 -461 -641 -84 -126 -163 -239 -175 -250 l-22 -20 -16 24
c-9 13 -35 65 -57 115 -52 114 -67 125 -148 102 -38 -11 -70 -29 -98 -56 -38
-36 -41 -42 -35 -77 11 -63 86 -305 110 -358 41 -89 52 -97 138 -103 123 -8
132 -2 241 156 52 75 137 200 189 277 95 142 304 431 387 539 25 32 114 144
198 249 163 205 190 245 180 271 -8 20 -76 21 -154 2z"/>
</g>
</svg>
