<svg data-v-423bf9ae="" xmlns="http://www.w3.org/2000/svg" viewBox="0 0 370.15873278579977 60" class="font"><!----><!----><!----><g data-v-423bf9ae="" id="6033d597-d36b-4e48-b09b-9bb37b03bcde" fill="black" transform="matrix(6.349206477356088,0,0,6.349206477356088,2.910600755967607e-7,0.06349182060443326)"><path d="M0.50 0C0.22 0 0 0.22 0 0.50L0 8.93C0 9.21 0.22 9.44 0.50 9.44L3.53 9.44C3.81 9.44 4.03 9.21 4.03 8.93L4.03 8.55C4.03 8.27 3.81 8.05 3.53 8.05L1.39 8.05L1.39 5.40L3.15 5.40C3.43 5.40 3.65 5.18 3.65 4.90L3.65 4.52C3.65 4.24 3.43 4.02 3.15 4.02L1.39 4.02L1.39 1.39L3.53 1.39C3.81 1.39 4.03 1.16 4.03 0.88L4.03 0.50C4.03 0.22 3.81 0 3.53 0ZM7.53 6.36L8.85 9.14C8.92 9.30 9.14 9.44 9.31 9.44L9.74 9.44C10.15 9.44 10.36 9.07 10.19 8.72L8.29 4.72L10.16 0.71C10.33 0.36 10.11 0 9.72 0L9.28 0C9.11 0 8.89 0.14 8.83 0.29C8.40 1.22 7.95 2.14 7.52 3.07L6.19 0.29C6.13 0.15 5.91 0 5.74 0L5.31 0C4.90 0 4.69 0.36 4.84 0.71L6.75 4.72L4.84 8.72C4.69 9.07 4.91 9.44 5.31 9.44L5.74 9.44C5.91 9.44 6.13 9.28 6.19 9.14ZM14.95 9.04C15.01 9.25 15.23 9.44 15.44 9.44L15.85 9.44C16.18 9.44 16.41 9.14 16.34 8.82L14.41 0.39C14.36 0.18 14.13 0 13.92 0L13.61 0C13.40 0 13.17 0.18 13.12 0.39L11.84 5.87L11.17 8.83C11.10 9.16 11.33 9.44 11.66 9.44L12.07 9.44C12.28 9.44 12.50 9.25 12.56 9.04L13.05 6.86L14.48 6.86ZM13.76 3.23C14.03 4.42 14 4.80 14.15 5.47L13.37 5.47ZM19.96 9.44C20.17 9.44 20.40 9.25 20.45 9.03L20.92 5.92L20.92 8.93C20.92 9.21 21.14 9.44 21.42 9.44L21.81 9.44C22.09 9.44 22.32 9.21 22.32 8.93L22.32 0.50C22.32 0.22 22.09 0 21.81 0L21.39 0C21.18 0 20.94 0.18 20.90 0.39L19.81 6.03L18.70 0.39C18.66 0.18 18.44 0 18.23 0L17.81 0C17.53 0 17.30 0.22 17.30 0.50L17.30 8.93C17.30 9.21 17.53 9.44 17.81 9.44L18.20 9.44C18.47 9.44 18.70 9.21 18.70 8.93L18.70 5.89L19.18 9.04C19.22 9.25 19.45 9.44 19.66 9.44ZM29.11 9.44C29.32 9.44 29.54 9.25 29.60 9.03L30.06 5.92L30.06 8.93C30.06 9.21 30.28 9.44 30.56 9.44L30.95 9.44C31.23 9.44 31.46 9.21 31.46 8.93L31.46 0.50C31.46 0.22 31.23 0 30.95 0L30.53 0C30.32 0 30.09 0.18 30.04 0.39L28.95 6.03L27.85 0.39C27.80 0.18 27.58 0 27.37 0L26.95 0C26.67 0 26.45 0.22 26.45 0.50L26.45 8.93C26.45 9.21 26.67 9.44 26.95 9.44L27.34 9.44C27.61 9.44 27.85 9.21 27.85 8.93L27.85 5.89L28.32 9.04C28.36 9.25 28.59 9.44 28.80 9.44ZM35.94 9.04C35.99 9.25 36.22 9.44 36.43 9.44L36.83 9.44C37.17 9.44 37.39 9.14 37.32 8.82L35.39 0.39C35.35 0.18 35.11 0 34.90 0L34.59 0C34.38 0 34.16 0.18 34.10 0.39L32.83 5.87L32.16 8.83C32.09 9.16 32.31 9.44 32.65 9.44L33.05 9.44C33.26 9.44 33.49 9.25 33.54 9.04L34.03 6.86L35.46 6.86ZM34.75 3.23C35.01 4.42 34.99 4.80 35.14 5.47L34.36 5.47ZM37.98 6.69C37.98 8.53 38.75 9.42 40.29 9.42C41.78 9.42 42.60 8.58 42.60 7.01C42.60 5.66 41.66 4.94 40.74 4.23L40.75 4.23C40.07 3.70 39.38 3.15 39.38 2.44C39.38 1.71 39.70 1.39 40.29 1.39C40.91 1.39 41.20 1.81 41.20 2.73L41.20 2.93C41.20 3.21 41.43 3.43 41.71 3.43L42.10 3.43C42.38 3.43 42.60 3.21 42.60 2.93L42.60 2.73C42.60 0.95 41.80-0.01 40.29-0.01C38.81-0.01 37.98 0.90 37.98 2.48C37.98 3.86 38.95 4.62 39.87 5.35L39.87 5.33C40.56 5.87 41.20 6.38 41.20 7.04C41.20 7.78 40.88 8.04 40.29 8.04C40.10 8.04 39.86 8.01 39.70 7.85C39.51 7.69 39.38 7.36 39.38 6.69L39.38 6.51C39.38 6.23 39.14 6.01 38.88 6.01L38.49 6.01C38.21 6.01 37.98 6.23 37.98 6.51ZM43.08 0.88C43.08 1.16 43.30 1.39 43.58 1.39L44.72 1.39L44.72 8.92C44.72 9.20 44.94 9.42 45.22 9.42L45.60 9.42C45.88 9.42 46.10 9.20 46.10 8.92L46.10 1.39L47.25 1.39C47.53 1.39 47.75 1.16 47.75 0.88L47.75 0.49C47.75 0.21 47.53-0.01 47.25-0.01L43.58-0.01C43.30-0.01 43.08 0.21 43.08 0.49ZM49.24 0C48.96 0 48.73 0.22 48.73 0.50L48.73 8.93C48.73 9.21 48.96 9.44 49.24 9.44L52.26 9.44C52.54 9.44 52.77 9.21 52.77 8.93L52.77 8.55C52.77 8.27 52.54 8.05 52.26 8.05L50.12 8.05L50.12 5.40L51.88 5.40C52.16 5.40 52.39 5.18 52.39 4.90L52.39 4.52C52.39 4.24 52.16 4.02 51.88 4.02L50.12 4.02L50.12 1.39L52.26 1.39C52.54 1.39 52.77 1.16 52.77 0.88L52.77 0.50C52.77 0.22 52.54 0 52.26 0ZM58.20 6.58C58.20 5.85 58.00 5.28 57.60 4.84C57.64 4.80 57.67 4.77 57.71 4.73C58.14 4.30 58.30 3.60 58.30 2.73C58.30 0.85 57.69-0.01 55.97-0.01L54.21-0.01C53.93-0.01 53.70 0.21 53.70 0.49L53.70 8.92C53.70 9.20 53.93 9.42 54.21 9.42L54.60 9.42C54.87 9.42 55.09 9.20 55.09 8.92L55.09 5.49L55.72 5.49C56.41 5.49 56.80 5.88 56.80 6.58L56.80 8.92C56.80 9.20 57.02 9.42 57.30 9.42L57.69 9.42C57.97 9.42 58.20 9.20 58.20 8.92ZM55.09 1.39L55.97 1.39C56.70 1.39 56.91 1.78 56.91 2.73C56.91 3.68 56.50 4.07 55.72 4.07L55.09 4.07Z"></path></g><!----><!----></svg>